<?xml version="1.0" encoding="utf-8" standalone="no"?>
<!DOCTYPE svg PUBLIC "-//W3C//DTD SVG 1.1//EN"
  "http://www.w3.org/Graphics/SVG/1.1/DTD/svg11.dtd">
<svg xmlns:xlink="http://www.w3.org/1999/xlink" width="864pt" height="720pt" viewBox="0 0 864 720" xmlns="http://www.w3.org/2000/svg" version="1.1">
 <metadata>
  <rdf:RDF xmlns:dc="http://purl.org/dc/elements/1.1/" xmlns:cc="http://creativecommons.org/ns#" xmlns:rdf="http://www.w3.org/1999/02/22-rdf-syntax-ns#">
   <cc:Work>
    <dc:type rdf:resource="http://purl.org/dc/dcmitype/StillImage"/>
    <dc:date>2025-01-02T14:42:45.767220</dc:date>
    <dc:format>image/svg+xml</dc:format>
    <dc:creator>
     <cc:Agent>
      <dc:title>Matplotlib v3.9.0, https://matplotlib.org/</dc:title>
     </cc:Agent>
    </dc:creator>
   </cc:Work>
  </rdf:RDF>
 </metadata>
 <defs>
  <style type="text/css">*{stroke-linejoin: round; stroke-linecap: butt}</style>
 </defs>
 <g id="figure_1">
  <g id="patch_1">
   <path d="M 0 720 
L 864 720 
L 864 0 
L 0 0 
z
" style="fill: #ffffff"/>
  </g>
  <g id="axes_1">
   <g id="LineCollection_1">
    <path d="M 284.804749 175.129412 
L 284.804749 668.117647 
" clip-path="url(#p73053cfd10)" style="fill: none; stroke: #000000"/>
    <path d="M 284.804749 668.117647 
L 284.804749 298.376471 
" clip-path="url(#p73053cfd10)" style="fill: none; stroke: #000000"/>
    <path d="M 284.804749 175.129412 
L 236.085156 257.294118 
" clip-path="url(#p73053cfd10)" style="fill: none; stroke: #000000"/>
    <path d="M 284.804749 175.129412 
L 284.804749 257.294118 
" clip-path="url(#p73053cfd10)" style="fill: none; stroke: #000000"/>
    <path d="M 284.804749 175.129412 
L 333.524342 257.294118 
" clip-path="url(#p73053cfd10)" style="fill: none; stroke: #000000"/>
    <path d="M 200.357455 51.882353 
L 284.804749 175.129412 
" clip-path="url(#p73053cfd10)" style="fill: none; stroke: #000000"/>
    <path d="M 252.32502 51.882353 
L 284.804749 175.129412 
" clip-path="url(#p73053cfd10)" style="fill: none; stroke: #000000"/>
    <path d="M 398.483799 51.882353 
L 284.804749 175.129412 
" clip-path="url(#p73053cfd10)" style="fill: none; stroke: #000000"/>
    <path d="M 284.804749 668.117647 
L 690.801357 668.117647 
" clip-path="url(#p73053cfd10)" style="fill: none; stroke: #000000"/>
    <path d="M 284.804749 298.376471 
L 236.085156 257.294118 
" clip-path="url(#p73053cfd10)" style="fill: none; stroke: #000000"/>
    <path d="M 284.804749 298.376471 
L 284.804749 257.294118 
" clip-path="url(#p73053cfd10)" style="fill: none; stroke: #000000"/>
    <path d="M 284.804749 298.376471 
L 333.524342 257.294118 
" clip-path="url(#p73053cfd10)" style="fill: none; stroke: #000000"/>
    <path d="M 284.804749 544.870588 
L 284.804749 668.117647 
" clip-path="url(#p73053cfd10)" style="fill: none; stroke: #000000"/>
    <path d="M 284.804749 421.623529 
L 284.804749 544.870588 
" clip-path="url(#p73053cfd10)" style="fill: none; stroke: #000000"/>
   </g>
   <g id="patch_2">
    <path d="M 203.605427 84.748235 
C 227.29317 84.748235 250.013914 81.285279 266.763677 75.122041 
C 283.513441 68.958804 292.924681 60.598487 292.924681 51.882353 
C 292.924681 43.166219 283.513441 34.805902 266.763677 28.642665 
C 250.013914 22.479427 227.29317 19.016471 203.605427 19.016471 
C 179.917685 19.016471 157.196941 22.479427 140.447177 28.642665 
C 123.697414 34.805902 114.286174 43.166219 114.286174 51.882353 
C 114.286174 60.598487 123.697414 68.958804 140.447177 75.122041 
C 157.196941 81.285279 179.917685 84.748235 203.605427 84.748235 
z
" clip-path="url(#p73053cfd10)" style="fill: #fcd5b5; opacity: 0.8; stroke: #a52a2a; stroke-width: 2; stroke-linejoin: miter"/>
   </g>
   <g id="patch_3">
    <path d="M 348.14022 80.64 
C 367.5211 80.64 386.1108 77.609913 399.815152 72.21708 
C 413.519504 66.824247 421.219609 59.50897 421.219609 51.882353 
C 421.219609 44.255736 413.519504 36.940458 399.815152 31.547626 
C 386.1108 26.154793 367.5211 23.124706 348.14022 23.124706 
C 328.759339 23.124706 310.16964 26.154793 296.465288 31.547626 
C 282.760936 36.940458 275.06083 44.255736 275.06083 51.882353 
C 275.06083 59.50897 282.760936 66.824247 296.465288 72.21708 
C 310.16964 77.609913 328.759339 80.64 348.14022 80.64 
z
" clip-path="url(#p73053cfd10)" style="fill: #fcd5b5; opacity: 0.8; stroke: #a52a2a; stroke-width: 2; stroke-linejoin: miter"/>
   </g>
   <g id="PathCollection_1">
    <path d="M 257.418621 695.503775 
L 312.190877 695.503775 
L 312.190877 640.731519 
L 257.418621 640.731519 
z
" clip-path="url(#p73053cfd10)" style="fill: #add8e6; stroke: #add8e6"/>
    <path d="M 257.418621 572.256716 
L 312.190877 572.256716 
L 312.190877 517.48446 
L 257.418621 517.48446 
z
" clip-path="url(#p73053cfd10)" style="fill: #800080; stroke: #800080"/>
    <path d="M 257.418621 449.009657 
L 312.190877 449.009657 
L 312.190877 394.237402 
L 257.418621 394.237402 
z
" clip-path="url(#p73053cfd10)" style="fill: #ffa500; stroke: #ffa500"/>
    <path d="M 257.418621 325.762598 
L 312.190877 325.762598 
L 312.190877 270.990343 
L 257.418621 270.990343 
z
" clip-path="url(#p73053cfd10)" style="fill: #808080; stroke: #808080"/>
    <path d="M 257.418621 202.51554 
L 312.190877 202.51554 
L 312.190877 147.743284 
L 257.418621 147.743284 
z
" clip-path="url(#p73053cfd10)" style="fill: #ff6347; stroke: #ff6347"/>
    <path d="M 224.938893 79.268481 
L 279.711148 79.268481 
L 279.711148 24.496225 
L 224.938893 24.496225 
z
" clip-path="url(#p73053cfd10)" style="fill: #ff0000; stroke: #ff0000"/>
    <path d="M 371.097671 79.268481 
L 425.869927 79.268481 
L 425.869927 24.496225 
L 371.097671 24.496225 
z
" clip-path="url(#p73053cfd10)" style="stroke: #000000"/>
    <path d="M 663.415229 695.503775 
L 718.187485 695.503775 
L 718.187485 640.731519 
L 663.415229 640.731519 
z
" clip-path="url(#p73053cfd10)" style="fill: #808080; stroke: #808080"/>
   </g>
   <g id="PathCollection_2">
    <defs>
     <path id="C0_0_634ee151ae" d="M 0 15.811388 
C 4.193229 15.811388 8.215279 14.145401 11.18034 11.18034 
C 14.145401 8.215279 15.811388 4.193229 15.811388 -0 
C 15.811388 -4.193229 14.145401 -8.215279 11.18034 -11.18034 
C 8.215279 -14.145401 4.193229 -15.811388 0 -15.811388 
C -4.193229 -15.811388 -8.215279 -14.145401 -11.18034 -11.18034 
C -14.145401 -8.215279 -15.811388 -4.193229 -15.811388 0 
C -15.811388 4.193229 -14.145401 8.215279 -11.18034 11.18034 
C -8.215279 14.145401 -4.193229 15.811388 0 15.811388 
z
"/>
    </defs>
    <g clip-path="url(#p73053cfd10)">
     <use xlink:href="#C0_0_634ee151ae" x="236.085156" y="257.294118" style="stroke: #000000"/>
    </g>
    <g clip-path="url(#p73053cfd10)">
     <use xlink:href="#C0_0_634ee151ae" x="284.804749" y="257.294118" style="fill: #ff0000; stroke: #ff0000"/>
    </g>
    <g clip-path="url(#p73053cfd10)">
     <use xlink:href="#C0_0_634ee151ae" x="333.524342" y="257.294118" style="fill: #ffff00; stroke: #ffff00"/>
    </g>
   </g>
   <g id="PathCollection_3">
    <defs>
     <path id="mb3d39bfb32" d="M -27.386128 27.386128 
L 27.386128 27.386128 
L 27.386128 -27.386128 
L -27.386128 -27.386128 
z
" style="stroke: #000000"/>
    </defs>
    <g clip-path="url(#p73053cfd10)">
     <use xlink:href="#mb3d39bfb32" x="200.357455" y="51.882353" style="fill: #ffffff; stroke: #000000"/>
    </g>
   </g>
   <g id="text_1">
    <!-- Mikrocontroller -->
    <g transform="translate(245.699749 670.601085) scale(0.09 -0.09)">
     <defs>
      <path id="DejaVuSans-Bold-4d" d="M 588 4666 
L 2119 4666 
L 3181 2169 
L 4250 4666 
L 5778 4666 
L 5778 0 
L 4641 0 
L 4641 3413 
L 3566 897 
L 2803 897 
L 1728 3413 
L 1728 0 
L 588 0 
L 588 4666 
z
" transform="scale(0.015625)"/>
      <path id="DejaVuSans-Bold-69" d="M 538 3500 
L 1656 3500 
L 1656 0 
L 538 0 
L 538 3500 
z
M 538 4863 
L 1656 4863 
L 1656 3950 
L 538 3950 
L 538 4863 
z
" transform="scale(0.015625)"/>
      <path id="DejaVuSans-Bold-6b" d="M 538 4863 
L 1656 4863 
L 1656 2216 
L 2944 3500 
L 4244 3500 
L 2534 1894 
L 4378 0 
L 3022 0 
L 1656 1459 
L 1656 0 
L 538 0 
L 538 4863 
z
" transform="scale(0.015625)"/>
      <path id="DejaVuSans-Bold-72" d="M 3138 2547 
Q 2991 2616 2845 2648 
Q 2700 2681 2553 2681 
Q 2122 2681 1889 2404 
Q 1656 2128 1656 1613 
L 1656 0 
L 538 0 
L 538 3500 
L 1656 3500 
L 1656 2925 
Q 1872 3269 2151 3426 
Q 2431 3584 2822 3584 
Q 2878 3584 2943 3579 
Q 3009 3575 3134 3559 
L 3138 2547 
z
" transform="scale(0.015625)"/>
      <path id="DejaVuSans-Bold-6f" d="M 2203 2784 
Q 1831 2784 1636 2517 
Q 1441 2250 1441 1747 
Q 1441 1244 1636 976 
Q 1831 709 2203 709 
Q 2569 709 2762 976 
Q 2956 1244 2956 1747 
Q 2956 2250 2762 2517 
Q 2569 2784 2203 2784 
z
M 2203 3584 
Q 3106 3584 3614 3096 
Q 4122 2609 4122 1747 
Q 4122 884 3614 396 
Q 3106 -91 2203 -91 
Q 1297 -91 786 396 
Q 275 884 275 1747 
Q 275 2609 786 3096 
Q 1297 3584 2203 3584 
z
" transform="scale(0.015625)"/>
      <path id="DejaVuSans-Bold-63" d="M 3366 3391 
L 3366 2478 
Q 3138 2634 2908 2709 
Q 2678 2784 2431 2784 
Q 1963 2784 1702 2511 
Q 1441 2238 1441 1747 
Q 1441 1256 1702 982 
Q 1963 709 2431 709 
Q 2694 709 2930 787 
Q 3166 866 3366 1019 
L 3366 103 
Q 3103 6 2833 -42 
Q 2563 -91 2291 -91 
Q 1344 -91 809 395 
Q 275 881 275 1747 
Q 275 2613 809 3098 
Q 1344 3584 2291 3584 
Q 2566 3584 2833 3536 
Q 3100 3488 3366 3391 
z
" transform="scale(0.015625)"/>
      <path id="DejaVuSans-Bold-6e" d="M 4056 2131 
L 4056 0 
L 2931 0 
L 2931 347 
L 2931 1631 
Q 2931 2084 2911 2256 
Q 2891 2428 2841 2509 
Q 2775 2619 2662 2680 
Q 2550 2741 2406 2741 
Q 2056 2741 1856 2470 
Q 1656 2200 1656 1722 
L 1656 0 
L 538 0 
L 538 3500 
L 1656 3500 
L 1656 2988 
Q 1909 3294 2193 3439 
Q 2478 3584 2822 3584 
Q 3428 3584 3742 3212 
Q 4056 2841 4056 2131 
z
" transform="scale(0.015625)"/>
      <path id="DejaVuSans-Bold-74" d="M 1759 4494 
L 1759 3500 
L 2913 3500 
L 2913 2700 
L 1759 2700 
L 1759 1216 
Q 1759 972 1856 886 
Q 1953 800 2241 800 
L 2816 800 
L 2816 0 
L 1856 0 
Q 1194 0 917 276 
Q 641 553 641 1216 
L 641 2700 
L 84 2700 
L 84 3500 
L 641 3500 
L 641 4494 
L 1759 4494 
z
" transform="scale(0.015625)"/>
      <path id="DejaVuSans-Bold-6c" d="M 538 4863 
L 1656 4863 
L 1656 0 
L 538 0 
L 538 4863 
z
" transform="scale(0.015625)"/>
      <path id="DejaVuSans-Bold-65" d="M 4031 1759 
L 4031 1441 
L 1416 1441 
Q 1456 1047 1700 850 
Q 1944 653 2381 653 
Q 2734 653 3104 758 
Q 3475 863 3866 1075 
L 3866 213 
Q 3469 63 3072 -14 
Q 2675 -91 2278 -91 
Q 1328 -91 801 392 
Q 275 875 275 1747 
Q 275 2603 792 3093 
Q 1309 3584 2216 3584 
Q 3041 3584 3536 3087 
Q 4031 2591 4031 1759 
z
M 2881 2131 
Q 2881 2450 2695 2645 
Q 2509 2841 2209 2841 
Q 1884 2841 1681 2658 
Q 1478 2475 1428 2131 
L 2881 2131 
z
" transform="scale(0.015625)"/>
     </defs>
     <use xlink:href="#DejaVuSans-Bold-4d"/>
     <use xlink:href="#DejaVuSans-Bold-69" x="99.511719"/>
     <use xlink:href="#DejaVuSans-Bold-6b" x="133.789062"/>
     <use xlink:href="#DejaVuSans-Bold-72" x="200.292969"/>
     <use xlink:href="#DejaVuSans-Bold-6f" x="249.609375"/>
     <use xlink:href="#DejaVuSans-Bold-63" x="318.310547"/>
     <use xlink:href="#DejaVuSans-Bold-6f" x="377.587891"/>
     <use xlink:href="#DejaVuSans-Bold-6e" x="446.289062"/>
     <use xlink:href="#DejaVuSans-Bold-74" x="517.480469"/>
     <use xlink:href="#DejaVuSans-Bold-72" x="565.283203"/>
     <use xlink:href="#DejaVuSans-Bold-6f" x="614.599609"/>
     <use xlink:href="#DejaVuSans-Bold-6c" x="683.300781"/>
     <use xlink:href="#DejaVuSans-Bold-6c" x="717.578125"/>
     <use xlink:href="#DejaVuSans-Bold-65" x="751.855469"/>
     <use xlink:href="#DejaVuSans-Bold-72" x="819.677734"/>
    </g>
   </g>
   <g id="text_2">
    <!-- Qwiic -->
    <g transform="translate(271.068499 542.31501) scale(0.09 -0.09)">
     <defs>
      <path id="DejaVuSans-Bold-51" d="M 2847 -84 
L 2753 -84 
Q 1600 -84 959 553 
Q 319 1191 319 2328 
Q 319 3463 958 4106 
Q 1597 4750 2719 4750 
Q 3853 4750 4486 4112 
Q 5119 3475 5119 2328 
Q 5119 1541 4783 972 
Q 4447 403 3816 116 
L 4756 -934 
L 3609 -934 
L 2847 -84 
z
M 2719 3878 
Q 2169 3878 1866 3472 
Q 1563 3066 1563 2328 
Q 1563 1578 1859 1179 
Q 2156 781 2719 781 
Q 3272 781 3575 1187 
Q 3878 1594 3878 2328 
Q 3878 3066 3575 3472 
Q 3272 3878 2719 3878 
z
" transform="scale(0.015625)"/>
      <path id="DejaVuSans-Bold-77" d="M 225 3500 
L 1313 3500 
L 1900 1088 
L 2491 3500 
L 3425 3500 
L 4013 1113 
L 4603 3500 
L 5691 3500 
L 4769 0 
L 3547 0 
L 2956 2406 
L 2369 0 
L 1147 0 
L 225 3500 
z
" transform="scale(0.015625)"/>
     </defs>
     <use xlink:href="#DejaVuSans-Bold-51"/>
     <use xlink:href="#DejaVuSans-Bold-77" x="85.009766"/>
     <use xlink:href="#DejaVuSans-Bold-69" x="177.392578"/>
     <use xlink:href="#DejaVuSans-Bold-69" x="211.669922"/>
     <use xlink:href="#DejaVuSans-Bold-63" x="245.947266"/>
    </g>
    <!-- Kabel -->
    <g transform="translate(270.465218 552.393041) scale(0.09 -0.09)">
     <defs>
      <path id="DejaVuSans-Bold-4b" d="M 588 4666 
L 1791 4666 
L 1791 2963 
L 3525 4666 
L 4922 4666 
L 2675 2456 
L 5153 0 
L 3647 0 
L 1791 1838 
L 1791 0 
L 588 0 
L 588 4666 
z
" transform="scale(0.015625)"/>
      <path id="DejaVuSans-Bold-61" d="M 2106 1575 
Q 1756 1575 1579 1456 
Q 1403 1338 1403 1106 
Q 1403 894 1545 773 
Q 1688 653 1941 653 
Q 2256 653 2472 879 
Q 2688 1106 2688 1447 
L 2688 1575 
L 2106 1575 
z
M 3816 1997 
L 3816 0 
L 2688 0 
L 2688 519 
Q 2463 200 2181 54 
Q 1900 -91 1497 -91 
Q 953 -91 614 226 
Q 275 544 275 1050 
Q 275 1666 698 1953 
Q 1122 2241 2028 2241 
L 2688 2241 
L 2688 2328 
Q 2688 2594 2478 2717 
Q 2269 2841 1825 2841 
Q 1466 2841 1156 2769 
Q 847 2697 581 2553 
L 581 3406 
Q 941 3494 1303 3539 
Q 1666 3584 2028 3584 
Q 2975 3584 3395 3211 
Q 3816 2838 3816 1997 
z
" transform="scale(0.015625)"/>
      <path id="DejaVuSans-Bold-62" d="M 2400 722 
Q 2759 722 2948 984 
Q 3138 1247 3138 1747 
Q 3138 2247 2948 2509 
Q 2759 2772 2400 2772 
Q 2041 2772 1848 2508 
Q 1656 2244 1656 1747 
Q 1656 1250 1848 986 
Q 2041 722 2400 722 
z
M 1656 2988 
Q 1888 3294 2169 3439 
Q 2450 3584 2816 3584 
Q 3463 3584 3878 3070 
Q 4294 2556 4294 1747 
Q 4294 938 3878 423 
Q 3463 -91 2816 -91 
Q 2450 -91 2169 54 
Q 1888 200 1656 506 
L 1656 0 
L 538 0 
L 538 4863 
L 1656 4863 
L 1656 2988 
z
" transform="scale(0.015625)"/>
     </defs>
     <use xlink:href="#DejaVuSans-Bold-4b"/>
     <use xlink:href="#DejaVuSans-Bold-61" x="77.490234"/>
     <use xlink:href="#DejaVuSans-Bold-62" x="144.970703"/>
     <use xlink:href="#DejaVuSans-Bold-65" x="216.552734"/>
     <use xlink:href="#DejaVuSans-Bold-6c" x="284.375"/>
    </g>
   </g>
   <g id="text_3">
    <!-- ADC -->
    <g transform="translate(274.28389 424.106967) scale(0.09 -0.09)">
     <defs>
      <path id="DejaVuSans-Bold-41" d="M 3419 850 
L 1538 850 
L 1241 0 
L 31 0 
L 1759 4666 
L 3194 4666 
L 4922 0 
L 3713 0 
L 3419 850 
z
M 1838 1716 
L 3116 1716 
L 2478 3572 
L 1838 1716 
z
" transform="scale(0.015625)"/>
      <path id="DejaVuSans-Bold-44" d="M 1791 3756 
L 1791 909 
L 2222 909 
Q 2959 909 3348 1275 
Q 3738 1641 3738 2338 
Q 3738 3031 3350 3393 
Q 2963 3756 2222 3756 
L 1791 3756 
z
M 588 4666 
L 1856 4666 
Q 2919 4666 3439 4514 
Q 3959 4363 4331 4000 
Q 4659 3684 4818 3271 
Q 4978 2859 4978 2338 
Q 4978 1809 4818 1395 
Q 4659 981 4331 666 
Q 3956 303 3431 151 
Q 2906 0 1856 0 
L 588 0 
L 588 4666 
z
" transform="scale(0.015625)"/>
      <path id="DejaVuSans-Bold-43" d="M 4288 256 
Q 3956 84 3597 -3 
Q 3238 -91 2847 -91 
Q 1681 -91 1000 561 
Q 319 1213 319 2328 
Q 319 3447 1000 4098 
Q 1681 4750 2847 4750 
Q 3238 4750 3597 4662 
Q 3956 4575 4288 4403 
L 4288 3438 
Q 3953 3666 3628 3772 
Q 3303 3878 2944 3878 
Q 2300 3878 1931 3465 
Q 1563 3053 1563 2328 
Q 1563 1606 1931 1193 
Q 2300 781 2944 781 
Q 3303 781 3628 887 
Q 3953 994 4288 1222 
L 4288 256 
z
" transform="scale(0.015625)"/>
     </defs>
     <use xlink:href="#DejaVuSans-Bold-41"/>
     <use xlink:href="#DejaVuSans-Bold-44" x="77.392578"/>
     <use xlink:href="#DejaVuSans-Bold-43" x="160.400391"/>
    </g>
   </g>
   <g id="text_4">
    <!-- Jumper Kabel -->
    <g transform="translate(250.839593 300.859908) scale(0.09 -0.09)">
     <defs>
      <path id="DejaVuSans-Bold-4a" d="M 588 4666 
L 1791 4666 
L 1791 453 
Q 1791 -419 1317 -850 
Q 844 -1281 -116 -1281 
L -359 -1281 
L -359 -372 
L -172 -372 
Q 203 -372 395 -162 
Q 588 47 588 453 
L 588 4666 
z
" transform="scale(0.015625)"/>
      <path id="DejaVuSans-Bold-75" d="M 500 1363 
L 500 3500 
L 1625 3500 
L 1625 3150 
Q 1625 2866 1622 2436 
Q 1619 2006 1619 1863 
Q 1619 1441 1641 1255 
Q 1663 1069 1716 984 
Q 1784 875 1895 815 
Q 2006 756 2150 756 
Q 2500 756 2700 1025 
Q 2900 1294 2900 1772 
L 2900 3500 
L 4019 3500 
L 4019 0 
L 2900 0 
L 2900 506 
Q 2647 200 2364 54 
Q 2081 -91 1741 -91 
Q 1134 -91 817 281 
Q 500 653 500 1363 
z
" transform="scale(0.015625)"/>
      <path id="DejaVuSans-Bold-6d" d="M 3781 2919 
Q 3994 3244 4286 3414 
Q 4578 3584 4928 3584 
Q 5531 3584 5847 3212 
Q 6163 2841 6163 2131 
L 6163 0 
L 5038 0 
L 5038 1825 
Q 5041 1866 5042 1909 
Q 5044 1953 5044 2034 
Q 5044 2406 4934 2573 
Q 4825 2741 4581 2741 
Q 4263 2741 4089 2478 
Q 3916 2216 3909 1719 
L 3909 0 
L 2784 0 
L 2784 1825 
Q 2784 2406 2684 2573 
Q 2584 2741 2328 2741 
Q 2006 2741 1831 2477 
Q 1656 2213 1656 1722 
L 1656 0 
L 531 0 
L 531 3500 
L 1656 3500 
L 1656 2988 
Q 1863 3284 2130 3434 
Q 2397 3584 2719 3584 
Q 3081 3584 3359 3409 
Q 3638 3234 3781 2919 
z
" transform="scale(0.015625)"/>
      <path id="DejaVuSans-Bold-70" d="M 1656 506 
L 1656 -1331 
L 538 -1331 
L 538 3500 
L 1656 3500 
L 1656 2988 
Q 1888 3294 2169 3439 
Q 2450 3584 2816 3584 
Q 3463 3584 3878 3070 
Q 4294 2556 4294 1747 
Q 4294 938 3878 423 
Q 3463 -91 2816 -91 
Q 2450 -91 2169 54 
Q 1888 200 1656 506 
z
M 2400 2772 
Q 2041 2772 1848 2508 
Q 1656 2244 1656 1747 
Q 1656 1250 1848 986 
Q 2041 722 2400 722 
Q 2759 722 2948 984 
Q 3138 1247 3138 1747 
Q 3138 2247 2948 2509 
Q 2759 2772 2400 2772 
z
" transform="scale(0.015625)"/>
      <path id="DejaVuSans-Bold-20" transform="scale(0.015625)"/>
     </defs>
     <use xlink:href="#DejaVuSans-Bold-4a"/>
     <use xlink:href="#DejaVuSans-Bold-75" x="37.207031"/>
     <use xlink:href="#DejaVuSans-Bold-6d" x="108.398438"/>
     <use xlink:href="#DejaVuSans-Bold-70" x="212.597656"/>
     <use xlink:href="#DejaVuSans-Bold-65" x="284.179688"/>
     <use xlink:href="#DejaVuSans-Bold-72" x="352.001953"/>
     <use xlink:href="#DejaVuSans-Bold-20" x="401.318359"/>
     <use xlink:href="#DejaVuSans-Bold-4b" x="436.132812"/>
     <use xlink:href="#DejaVuSans-Bold-61" x="513.623047"/>
     <use xlink:href="#DejaVuSans-Bold-62" x="581.103516"/>
     <use xlink:href="#DejaVuSans-Bold-65" x="652.685547"/>
     <use xlink:href="#DejaVuSans-Bold-6c" x="720.507812"/>
    </g>
   </g>
   <g id="text_5">
    <!-- EMG-Sensor -->
    <g transform="translate(254.206155 167.534818) scale(0.09 -0.09)">
     <defs>
      <path id="DejaVuSans-Bold-45" d="M 588 4666 
L 3834 4666 
L 3834 3756 
L 1791 3756 
L 1791 2888 
L 3713 2888 
L 3713 1978 
L 1791 1978 
L 1791 909 
L 3903 909 
L 3903 0 
L 588 0 
L 588 4666 
z
" transform="scale(0.015625)"/>
      <path id="DejaVuSans-Bold-47" d="M 4781 347 
Q 4331 128 3847 18 
Q 3363 -91 2847 -91 
Q 1681 -91 1000 561 
Q 319 1213 319 2328 
Q 319 3456 1012 4103 
Q 1706 4750 2913 4750 
Q 3378 4750 3804 4662 
Q 4231 4575 4609 4403 
L 4609 3438 
Q 4219 3659 3833 3768 
Q 3447 3878 3059 3878 
Q 2341 3878 1952 3476 
Q 1563 3075 1563 2328 
Q 1563 1588 1938 1184 
Q 2313 781 3003 781 
Q 3191 781 3352 804 
Q 3513 828 3641 878 
L 3641 1784 
L 2906 1784 
L 2906 2591 
L 4781 2591 
L 4781 347 
z
" transform="scale(0.015625)"/>
      <path id="DejaVuSans-Bold-2d" d="M 347 2297 
L 2309 2297 
L 2309 1388 
L 347 1388 
L 347 2297 
z
" transform="scale(0.015625)"/>
      <path id="DejaVuSans-Bold-53" d="M 3834 4519 
L 3834 3531 
Q 3450 3703 3084 3790 
Q 2719 3878 2394 3878 
Q 1963 3878 1756 3759 
Q 1550 3641 1550 3391 
Q 1550 3203 1689 3098 
Q 1828 2994 2194 2919 
L 2706 2816 
Q 3484 2659 3812 2340 
Q 4141 2022 4141 1434 
Q 4141 663 3683 286 
Q 3225 -91 2284 -91 
Q 1841 -91 1394 -6 
Q 947 78 500 244 
L 500 1259 
Q 947 1022 1364 901 
Q 1781 781 2169 781 
Q 2563 781 2772 912 
Q 2981 1044 2981 1288 
Q 2981 1506 2839 1625 
Q 2697 1744 2272 1838 
L 1806 1941 
Q 1106 2091 782 2419 
Q 459 2747 459 3303 
Q 459 4000 909 4375 
Q 1359 4750 2203 4750 
Q 2588 4750 2994 4692 
Q 3400 4634 3834 4519 
z
" transform="scale(0.015625)"/>
      <path id="DejaVuSans-Bold-73" d="M 3272 3391 
L 3272 2541 
Q 2913 2691 2578 2766 
Q 2244 2841 1947 2841 
Q 1628 2841 1473 2761 
Q 1319 2681 1319 2516 
Q 1319 2381 1436 2309 
Q 1553 2238 1856 2203 
L 2053 2175 
Q 2913 2066 3209 1816 
Q 3506 1566 3506 1031 
Q 3506 472 3093 190 
Q 2681 -91 1863 -91 
Q 1516 -91 1145 -36 
Q 775 19 384 128 
L 384 978 
Q 719 816 1070 734 
Q 1422 653 1784 653 
Q 2113 653 2278 743 
Q 2444 834 2444 1013 
Q 2444 1163 2330 1236 
Q 2216 1309 1875 1350 
L 1678 1375 
Q 931 1469 631 1722 
Q 331 1975 331 2491 
Q 331 3047 712 3315 
Q 1094 3584 1881 3584 
Q 2191 3584 2531 3537 
Q 2872 3491 3272 3391 
z
" transform="scale(0.015625)"/>
     </defs>
     <use xlink:href="#DejaVuSans-Bold-45"/>
     <use xlink:href="#DejaVuSans-Bold-4d" x="68.310547"/>
     <use xlink:href="#DejaVuSans-Bold-47" x="167.822266"/>
     <use xlink:href="#DejaVuSans-Bold-2d" x="249.902344"/>
     <use xlink:href="#DejaVuSans-Bold-53" x="291.40625"/>
     <use xlink:href="#DejaVuSans-Bold-65" x="363.427734"/>
     <use xlink:href="#DejaVuSans-Bold-6e" x="431.25"/>
     <use xlink:href="#DejaVuSans-Bold-73" x="502.441406"/>
     <use xlink:href="#DejaVuSans-Bold-6f" x="561.962891"/>
     <use xlink:href="#DejaVuSans-Bold-72" x="630.664062"/>
    </g>
    <!-- verbunden mit -->
    <g transform="translate(247.546155 177.612849) scale(0.09 -0.09)">
     <defs>
      <path id="DejaVuSans-Bold-76" d="M 97 3500 
L 1216 3500 
L 2088 1081 
L 2956 3500 
L 4078 3500 
L 2700 0 
L 1472 0 
L 97 3500 
z
" transform="scale(0.015625)"/>
      <path id="DejaVuSans-Bold-64" d="M 2919 2988 
L 2919 4863 
L 4044 4863 
L 4044 0 
L 2919 0 
L 2919 506 
Q 2688 197 2409 53 
Q 2131 -91 1766 -91 
Q 1119 -91 703 423 
Q 288 938 288 1747 
Q 288 2556 703 3070 
Q 1119 3584 1766 3584 
Q 2128 3584 2408 3439 
Q 2688 3294 2919 2988 
z
M 2181 722 
Q 2541 722 2730 984 
Q 2919 1247 2919 1747 
Q 2919 2247 2730 2509 
Q 2541 2772 2181 2772 
Q 1825 2772 1636 2509 
Q 1447 2247 1447 1747 
Q 1447 1247 1636 984 
Q 1825 722 2181 722 
z
" transform="scale(0.015625)"/>
     </defs>
     <use xlink:href="#DejaVuSans-Bold-76"/>
     <use xlink:href="#DejaVuSans-Bold-65" x="65.185547"/>
     <use xlink:href="#DejaVuSans-Bold-72" x="133.007812"/>
     <use xlink:href="#DejaVuSans-Bold-62" x="182.324219"/>
     <use xlink:href="#DejaVuSans-Bold-75" x="253.90625"/>
     <use xlink:href="#DejaVuSans-Bold-6e" x="325.097656"/>
     <use xlink:href="#DejaVuSans-Bold-64" x="396.289062"/>
     <use xlink:href="#DejaVuSans-Bold-65" x="467.871094"/>
     <use xlink:href="#DejaVuSans-Bold-6e" x="535.693359"/>
     <use xlink:href="#DejaVuSans-Bold-20" x="606.884766"/>
     <use xlink:href="#DejaVuSans-Bold-6d" x="641.699219"/>
     <use xlink:href="#DejaVuSans-Bold-69" x="745.898438"/>
     <use xlink:href="#DejaVuSans-Bold-74" x="780.175781"/>
    </g>
    <!-- 4er Kabel -->
    <g transform="translate(260.496312 187.690881) scale(0.09 -0.09)">
     <defs>
      <path id="DejaVuSans-Bold-34" d="M 2356 3675 
L 1038 1722 
L 2356 1722 
L 2356 3675 
z
M 2156 4666 
L 3494 4666 
L 3494 1722 
L 4159 1722 
L 4159 850 
L 3494 850 
L 3494 0 
L 2356 0 
L 2356 850 
L 288 850 
L 288 1881 
L 2156 4666 
z
" transform="scale(0.015625)"/>
     </defs>
     <use xlink:href="#DejaVuSans-Bold-34"/>
     <use xlink:href="#DejaVuSans-Bold-65" x="69.580078"/>
     <use xlink:href="#DejaVuSans-Bold-72" x="137.402344"/>
     <use xlink:href="#DejaVuSans-Bold-20" x="186.71875"/>
     <use xlink:href="#DejaVuSans-Bold-4b" x="221.533203"/>
     <use xlink:href="#DejaVuSans-Bold-61" x="299.023438"/>
     <use xlink:href="#DejaVuSans-Bold-62" x="366.503906"/>
     <use xlink:href="#DejaVuSans-Bold-65" x="438.085938"/>
     <use xlink:href="#DejaVuSans-Bold-6c" x="505.908203"/>
    </g>
   </g>
   <g id="text_6">
    <!-- Elektrode -->
    <g transform="translate(175.961127 49.326775) scale(0.09 -0.09)">
     <use xlink:href="#DejaVuSans-Bold-45"/>
     <use xlink:href="#DejaVuSans-Bold-6c" x="68.310547"/>
     <use xlink:href="#DejaVuSans-Bold-65" x="102.587891"/>
     <use xlink:href="#DejaVuSans-Bold-6b" x="170.410156"/>
     <use xlink:href="#DejaVuSans-Bold-74" x="236.914062"/>
     <use xlink:href="#DejaVuSans-Bold-72" x="284.716797"/>
     <use xlink:href="#DejaVuSans-Bold-6f" x="334.033203"/>
     <use xlink:href="#DejaVuSans-Bold-64" x="402.734375"/>
     <use xlink:href="#DejaVuSans-Bold-65" x="474.316406"/>
    </g>
    <!-- Weiß -->
    <g transform="translate(187.725814 59.404806) scale(0.09 -0.09)">
     <defs>
      <path id="DejaVuSans-Bold-57" d="M 191 4666 
L 1344 4666 
L 2150 1275 
L 2950 4666 
L 4109 4666 
L 4909 1275 
L 5716 4666 
L 6859 4666 
L 5759 0 
L 4372 0 
L 3525 3547 
L 2688 0 
L 1300 0 
L 191 4666 
z
" transform="scale(0.015625)"/>
      <path id="DejaVuSans-Bold-df" d="M 538 3481 
Q 538 4175 959 4519 
Q 1381 4863 2234 4863 
Q 3053 4863 3472 4513 
Q 3891 4163 3891 3481 
L 3891 3259 
Q 3419 3228 3194 3106 
Q 2969 2984 2969 2753 
Q 2969 2638 3045 2548 
Q 3122 2459 3413 2297 
L 3628 2181 
Q 3991 1981 4158 1717 
Q 4325 1453 4325 1088 
Q 4325 497 3967 203 
Q 3609 -91 2888 -91 
Q 2684 -91 2468 -52 
Q 2253 -13 2022 63 
L 2022 825 
Q 2197 741 2376 697 
Q 2556 653 2725 653 
Q 2950 653 3087 765 
Q 3225 878 3225 1056 
Q 3225 1203 3139 1309 
Q 3053 1416 2747 1588 
L 2528 1709 
Q 2253 1863 2122 2073 
Q 1991 2284 1991 2566 
Q 1991 2928 2208 3175 
Q 2425 3422 2878 3578 
Q 2875 3844 2725 3983 
Q 2575 4122 2291 4122 
Q 1975 4122 1815 3950 
Q 1656 3778 1656 3438 
L 1656 0 
L 538 0 
L 538 3481 
z
" transform="scale(0.015625)"/>
     </defs>
     <use xlink:href="#DejaVuSans-Bold-57"/>
     <use xlink:href="#DejaVuSans-Bold-65" x="106.677734"/>
     <use xlink:href="#DejaVuSans-Bold-69" x="174.5"/>
     <use xlink:href="#DejaVuSans-Bold-df" x="208.777344"/>
    </g>
   </g>
   <g id="text_7">
    <!-- Elektrode -->
    <g transform="translate(227.928692 49.326775) scale(0.09 -0.09)">
     <use xlink:href="#DejaVuSans-Bold-45"/>
     <use xlink:href="#DejaVuSans-Bold-6c" x="68.310547"/>
     <use xlink:href="#DejaVuSans-Bold-65" x="102.587891"/>
     <use xlink:href="#DejaVuSans-Bold-6b" x="170.410156"/>
     <use xlink:href="#DejaVuSans-Bold-74" x="236.914062"/>
     <use xlink:href="#DejaVuSans-Bold-72" x="284.716797"/>
     <use xlink:href="#DejaVuSans-Bold-6f" x="334.033203"/>
     <use xlink:href="#DejaVuSans-Bold-64" x="402.734375"/>
     <use xlink:href="#DejaVuSans-Bold-65" x="474.316406"/>
    </g>
    <!-- Rot -->
    <g transform="translate(243.61752 59.404806) scale(0.09 -0.09)">
     <defs>
      <path id="DejaVuSans-Bold-52" d="M 2297 2597 
Q 2675 2597 2839 2737 
Q 3003 2878 3003 3200 
Q 3003 3519 2839 3656 
Q 2675 3794 2297 3794 
L 1791 3794 
L 1791 2597 
L 2297 2597 
z
M 1791 1766 
L 1791 0 
L 588 0 
L 588 4666 
L 2425 4666 
Q 3347 4666 3776 4356 
Q 4206 4047 4206 3378 
Q 4206 2916 3982 2619 
Q 3759 2322 3309 2181 
Q 3556 2125 3751 1926 
Q 3947 1728 4147 1325 
L 4800 0 
L 3519 0 
L 2950 1159 
Q 2778 1509 2601 1637 
Q 2425 1766 2131 1766 
L 1791 1766 
z
" transform="scale(0.015625)"/>
     </defs>
     <use xlink:href="#DejaVuSans-Bold-52"/>
     <use xlink:href="#DejaVuSans-Bold-6f" x="77.001953"/>
     <use xlink:href="#DejaVuSans-Bold-74" x="145.703125"/>
    </g>
   </g>
   <g id="text_8">
    <!-- Elektrode -->
    <g style="fill: #ffffff" transform="translate(374.087471 49.326775) scale(0.09 -0.09)">
     <use xlink:href="#DejaVuSans-Bold-45"/>
     <use xlink:href="#DejaVuSans-Bold-6c" x="68.310547"/>
     <use xlink:href="#DejaVuSans-Bold-65" x="102.587891"/>
     <use xlink:href="#DejaVuSans-Bold-6b" x="170.410156"/>
     <use xlink:href="#DejaVuSans-Bold-74" x="236.914062"/>
     <use xlink:href="#DejaVuSans-Bold-72" x="284.716797"/>
     <use xlink:href="#DejaVuSans-Bold-6f" x="334.033203"/>
     <use xlink:href="#DejaVuSans-Bold-64" x="402.734375"/>
     <use xlink:href="#DejaVuSans-Bold-65" x="474.316406"/>
    </g>
    <!-- Schwarz -->
    <g style="fill: #ffffff" transform="translate(377.339424 59.404806) scale(0.09 -0.09)">
     <defs>
      <path id="DejaVuSans-Bold-68" d="M 4056 2131 
L 4056 0 
L 2931 0 
L 2931 347 
L 2931 1625 
Q 2931 2084 2911 2256 
Q 2891 2428 2841 2509 
Q 2775 2619 2662 2680 
Q 2550 2741 2406 2741 
Q 2056 2741 1856 2470 
Q 1656 2200 1656 1722 
L 1656 0 
L 538 0 
L 538 4863 
L 1656 4863 
L 1656 2988 
Q 1909 3294 2193 3439 
Q 2478 3584 2822 3584 
Q 3428 3584 3742 3212 
Q 4056 2841 4056 2131 
z
" transform="scale(0.015625)"/>
      <path id="DejaVuSans-Bold-7a" d="M 366 3500 
L 3419 3500 
L 3419 2719 
L 1575 800 
L 3419 800 
L 3419 0 
L 288 0 
L 288 781 
L 2131 2700 
L 366 2700 
L 366 3500 
z
" transform="scale(0.015625)"/>
     </defs>
     <use xlink:href="#DejaVuSans-Bold-53"/>
     <use xlink:href="#DejaVuSans-Bold-63" x="72.021484"/>
     <use xlink:href="#DejaVuSans-Bold-68" x="131.298828"/>
     <use xlink:href="#DejaVuSans-Bold-77" x="202.490234"/>
     <use xlink:href="#DejaVuSans-Bold-61" x="294.873047"/>
     <use xlink:href="#DejaVuSans-Bold-72" x="362.353516"/>
     <use xlink:href="#DejaVuSans-Bold-7a" x="411.669922"/>
    </g>
   </g>
   <g id="text_9">
    <!-- GND -->
    <g style="fill: #ffffff" transform="translate(224.89 259.777555) scale(0.09 -0.09)">
     <defs>
      <path id="DejaVuSans-Bold-4e" d="M 588 4666 
L 1931 4666 
L 3628 1466 
L 3628 4666 
L 4769 4666 
L 4769 0 
L 3425 0 
L 1728 3200 
L 1728 0 
L 588 0 
L 588 4666 
z
" transform="scale(0.015625)"/>
     </defs>
     <use xlink:href="#DejaVuSans-Bold-47"/>
     <use xlink:href="#DejaVuSans-Bold-4e" x="82.080078"/>
     <use xlink:href="#DejaVuSans-Bold-44" x="165.771484"/>
    </g>
   </g>
   <g id="text_10">
    <!-- 3.3V -->
    <g transform="translate(273.350843 259.777555) scale(0.09 -0.09)">
     <defs>
      <path id="DejaVuSans-Bold-33" d="M 2981 2516 
Q 3453 2394 3698 2092 
Q 3944 1791 3944 1325 
Q 3944 631 3412 270 
Q 2881 -91 1863 -91 
Q 1503 -91 1142 -33 
Q 781 25 428 141 
L 428 1069 
Q 766 900 1098 814 
Q 1431 728 1753 728 
Q 2231 728 2486 893 
Q 2741 1059 2741 1369 
Q 2741 1688 2480 1852 
Q 2219 2016 1709 2016 
L 1228 2016 
L 1228 2791 
L 1734 2791 
Q 2188 2791 2409 2933 
Q 2631 3075 2631 3366 
Q 2631 3634 2415 3781 
Q 2200 3928 1806 3928 
Q 1516 3928 1219 3862 
Q 922 3797 628 3669 
L 628 4550 
Q 984 4650 1334 4700 
Q 1684 4750 2022 4750 
Q 2931 4750 3382 4451 
Q 3834 4153 3834 3553 
Q 3834 3144 3618 2883 
Q 3403 2622 2981 2516 
z
" transform="scale(0.015625)"/>
      <path id="DejaVuSans-Bold-2e" d="M 653 1209 
L 1778 1209 
L 1778 0 
L 653 0 
L 653 1209 
z
" transform="scale(0.015625)"/>
      <path id="DejaVuSans-Bold-56" d="M 31 4666 
L 1241 4666 
L 2478 1222 
L 3713 4666 
L 4922 4666 
L 3194 0 
L 1759 0 
L 31 4666 
z
" transform="scale(0.015625)"/>
     </defs>
     <use xlink:href="#DejaVuSans-Bold-33"/>
     <use xlink:href="#DejaVuSans-Bold-2e" x="69.580078"/>
     <use xlink:href="#DejaVuSans-Bold-33" x="107.568359"/>
     <use xlink:href="#DejaVuSans-Bold-56" x="177.148438"/>
    </g>
   </g>
   <g id="text_11">
    <!-- A0 -->
    <g transform="translate(326.910748 259.777555) scale(0.09 -0.09)">
     <defs>
      <path id="DejaVuSans-Bold-30" d="M 2944 2338 
Q 2944 3213 2780 3570 
Q 2616 3928 2228 3928 
Q 1841 3928 1675 3570 
Q 1509 3213 1509 2338 
Q 1509 1453 1675 1090 
Q 1841 728 2228 728 
Q 2613 728 2778 1090 
Q 2944 1453 2944 2338 
z
M 4147 2328 
Q 4147 1169 3647 539 
Q 3147 -91 2228 -91 
Q 1306 -91 806 539 
Q 306 1169 306 2328 
Q 306 3491 806 4120 
Q 1306 4750 2228 4750 
Q 3147 4750 3647 4120 
Q 4147 3491 4147 2328 
z
" transform="scale(0.015625)"/>
     </defs>
     <use xlink:href="#DejaVuSans-Bold-41"/>
     <use xlink:href="#DejaVuSans-Bold-30" x="77.392578"/>
    </g>
   </g>
   <g id="text_12">
    <!-- Mikro-USB -->
    <g transform="translate(664.285107 665.562069) scale(0.09 -0.09)">
     <defs>
      <path id="DejaVuSans-Bold-55" d="M 588 4666 
L 1791 4666 
L 1791 1869 
Q 1791 1291 1980 1042 
Q 2169 794 2597 794 
Q 3028 794 3217 1042 
Q 3406 1291 3406 1869 
L 3406 4666 
L 4609 4666 
L 4609 1869 
Q 4609 878 4112 393 
Q 3616 -91 2597 -91 
Q 1581 -91 1084 393 
Q 588 878 588 1869 
L 588 4666 
z
" transform="scale(0.015625)"/>
      <path id="DejaVuSans-Bold-42" d="M 2456 2859 
Q 2741 2859 2887 2984 
Q 3034 3109 3034 3353 
Q 3034 3594 2887 3720 
Q 2741 3847 2456 3847 
L 1791 3847 
L 1791 2859 
L 2456 2859 
z
M 2497 819 
Q 2859 819 3042 972 
Q 3225 1125 3225 1434 
Q 3225 1738 3044 1889 
Q 2863 2041 2497 2041 
L 1791 2041 
L 1791 819 
L 2497 819 
z
M 3616 2497 
Q 4003 2384 4215 2081 
Q 4428 1778 4428 1338 
Q 4428 663 3972 331 
Q 3516 0 2584 0 
L 588 0 
L 588 4666 
L 2394 4666 
Q 3366 4666 3802 4372 
Q 4238 4078 4238 3431 
Q 4238 3091 4078 2852 
Q 3919 2613 3616 2497 
z
" transform="scale(0.015625)"/>
     </defs>
     <use xlink:href="#DejaVuSans-Bold-4d"/>
     <use xlink:href="#DejaVuSans-Bold-69" x="99.511719"/>
     <use xlink:href="#DejaVuSans-Bold-6b" x="133.789062"/>
     <use xlink:href="#DejaVuSans-Bold-72" x="200.292969"/>
     <use xlink:href="#DejaVuSans-Bold-6f" x="249.609375"/>
     <use xlink:href="#DejaVuSans-Bold-2d" x="318.310547"/>
     <use xlink:href="#DejaVuSans-Bold-55" x="359.814453"/>
     <use xlink:href="#DejaVuSans-Bold-53" x="441.015625"/>
     <use xlink:href="#DejaVuSans-Bold-42" x="513.037109"/>
    </g>
    <!-- Kabel -->
    <g transform="translate(676.461826 675.6401) scale(0.09 -0.09)">
     <use xlink:href="#DejaVuSans-Bold-4b"/>
     <use xlink:href="#DejaVuSans-Bold-61" x="77.490234"/>
     <use xlink:href="#DejaVuSans-Bold-62" x="144.970703"/>
     <use xlink:href="#DejaVuSans-Bold-65" x="216.552734"/>
     <use xlink:href="#DejaVuSans-Bold-6c" x="284.375"/>
    </g>
   </g>
   <g id="text_13">
    <!-- Oberarm -->
    <g style="fill: #a52a2a" transform="translate(122.029184 49.802665) scale(0.1 -0.1)">
     <defs>
      <path id="DejaVuSans-Bold-4f" d="M 2719 3878 
Q 2169 3878 1866 3472 
Q 1563 3066 1563 2328 
Q 1563 1594 1866 1187 
Q 2169 781 2719 781 
Q 3272 781 3575 1187 
Q 3878 1594 3878 2328 
Q 3878 3066 3575 3472 
Q 3272 3878 2719 3878 
z
M 2719 4750 
Q 3844 4750 4481 4106 
Q 5119 3463 5119 2328 
Q 5119 1197 4481 553 
Q 3844 -91 2719 -91 
Q 1597 -91 958 553 
Q 319 1197 319 2328 
Q 319 3463 958 4106 
Q 1597 4750 2719 4750 
z
" transform="scale(0.015625)"/>
     </defs>
     <use xlink:href="#DejaVuSans-Bold-4f"/>
     <use xlink:href="#DejaVuSans-Bold-62" x="85.009766"/>
     <use xlink:href="#DejaVuSans-Bold-65" x="156.591797"/>
     <use xlink:href="#DejaVuSans-Bold-72" x="224.414062"/>
     <use xlink:href="#DejaVuSans-Bold-61" x="273.730469"/>
     <use xlink:href="#DejaVuSans-Bold-72" x="341.210938"/>
     <use xlink:href="#DejaVuSans-Bold-6d" x="390.527344"/>
    </g>
   </g>
   <g id="text_14">
    <!-- Unterarm -->
    <g style="fill: #a52a2a" transform="translate(298.488004 49.802665) scale(0.1 -0.1)">
     <use xlink:href="#DejaVuSans-Bold-55"/>
     <use xlink:href="#DejaVuSans-Bold-6e" x="81.201172"/>
     <use xlink:href="#DejaVuSans-Bold-74" x="152.392578"/>
     <use xlink:href="#DejaVuSans-Bold-65" x="200.195312"/>
     <use xlink:href="#DejaVuSans-Bold-72" x="268.017578"/>
     <use xlink:href="#DejaVuSans-Bold-61" x="317.333984"/>
     <use xlink:href="#DejaVuSans-Bold-72" x="384.814453"/>
     <use xlink:href="#DejaVuSans-Bold-6d" x="434.130859"/>
    </g>
   </g>
  </g>
 </g>
 <defs>
  <clipPath id="p73053cfd10">
   <rect x="37.958812" y="10.8" width="815.241188" height="698.4"/>
  </clipPath>
 </defs>
</svg>
